{"title":"Getting High *2011* [DVDRip.XviD-miguel] [ENG]","uid":6373913,"size":737456720,"categoryP":"video","categoryS":"movies","magnet":"?xt=urn:btih:590a3d58fd6220f067d7aa2f3dee9cd1f6587886&amp;dn=Getting+High+%2A2011%2A+%5BDVDRip.XviD-miguel%5D+%5BENG%5D&amp;tr=udp%3A%2F%2Ftracker.openbittorrent.com%3A80&amp;tr=udp%3A%2F%2Fopen.demonii.com%3A1337&amp;tr=udp%3A%2F%2Ftracker.coppersurfer.tk%3A6969&amp;tr=udp%3A%2F%2Fexodus.desync.com%3A6969","seeders":0,"leechers":1,"uploader":"miguel1983","files":-1,"time":1304783370,"description":" &lt;a href=&quot;http://img690.imageshack.us/img690/8535/1hnwsqan.jpg&quot; rel=&quot;nofollow&quot; target=&quot;_NEW&quot;&gt;http://img690.imageshack.us/img690/8535/1hnwsqan.jpg&lt;/a&gt;\n\nCountry.......: USA\nGenre.........: Drama\nDate release..: 05.05.2011 [World]\nDirector......: Steven Kessler\nWriters.......: Steven Kessler\nDuration......: 96 min.\nTrailer.......:\n\nPilot :\nBest friends Hunter and Santo, who lived in New York among the night events, women and drugs. They start with the vision 1800 and the two embark on a spiritual journey to escape from everyday responsibilities and the world.\n\nCats :\nPaz de la Huerta...........\nIsaach De Bankole..........\nKirk Acevedo...............\nJane Bradbury..............\nMike Doyle.................\n\nData Technical :\n!!! SAMPLE !!!\nAudio.....: English\nSubtitles.: None\nFormat                           : AVI\nFormat/Info                      : Audio Video Interleave\nFile size                        : 701 MiB\nDuration                         : 1h 36mn\nOverall bit rate                 : 1 020 Kbps\nWriting application              : VirtualDubMod 1.5.10.2 (build 2540/release)\nWriting library                  : VirtualDubMod build 2540/release\nVideo\nID                               : 0\nFormat                           : MPEG-4 Visual\nFormat profile                   : Advanced Simple@L5\nFormat settings, BVOP            : Yes\nFormat settings, QPel            : No\nFormat settings, GMC             : No warppoints\nFormat settings, Matrix          : Default (H.263)\nCodec ID                         : XVID\nCodec ID/Hint                    : XviD\nDuration                         : 1h 36mn\nBit rate                         : 844 Kbps\nWidth                            : 640 pixels\nHeight                           : 272 pixels\nDisplay aspect ratio             : 2.35:1\nFrame rate                       : 23.976 fps\nColor space                      : YUV\nChroma subsampling               : 4:2:0\nBit depth                        : 8 bits\nScan type                        : Progressive\nBits/(Pixel*Frame)               : 0.202\nStream size                      : 581 MiB (83%)\nWriting library                  : XviD 63\nAudio\nID                               : 1\nFormat                           : MPEG Audio\nFormat version                   : Version 1\nFormat profile                   : Layer 3\nMode                             : Joint stereo\nMode extension                   : MS Stereo\nCodec ID                         : 55\nCodec ID/Hint                    : MP3\nDuration                         : 1h 36mn\nBit rate mode                    : Variable\nBit rate                         : 160 Kbps\nChannel(s)                       : 2 channels\nSampling rate                    : 48.0 KHz\nStream size                      : 112 MiB (16%)\nAlignment                        : Aligned on interleaves\nInterleave, duration             : 24 ms (0.58 video frame)\nInterleave, preload duration     : 99 ms\n\nScreen : &lt;a href=&quot;\nhttp://img853.imageshack.us/img853/9826/gettinghigh2011s1.jpg&quot; rel=&quot;nofollow&quot; target=&quot;_NEW&quot;&gt;\nhttp://img853.imageshack.us/img853/9826/gettinghigh2011s1.jpg&lt;/a&gt; &lt;a href=&quot;\nhttp://img38.imageshack.us/img38/8720/gettinghigh2011s2.jpg&quot; rel=&quot;nofollow&quot; target=&quot;_NEW&quot;&gt;\nhttp://img38.imageshack.us/img38/8720/gettinghigh2011s2.jpg&lt;/a&gt; &lt;a href=&quot;\nhttp://img38.imageshack.us/img38/8720/gettinghigh2011s2.jpg&quot; rel=&quot;nofollow&quot; target=&quot;_NEW&quot;&gt;\nhttp://img38.imageshack.us/img38/8720/gettinghigh2011s2.jpg&lt;/a&gt; &lt;a href=&quot;\nhttp://img713.imageshack.us/img713/4191/gettinghigh2011s4.jpg&quot; rel=&quot;nofollow&quot; target=&quot;_NEW&quot;&gt;\nhttp://img713.imageshack.us/img713/4191/gettinghigh2011s4.jpg&lt;/a&gt; &lt;a href=&quot;\nhttp://img860.imageshack.us/img860/1149/gettinghigh2011s5.jpg&quot; rel=&quot;nofollow&quot; target=&quot;_NEW&quot;&gt;\nhttp://img860.imageshack.us/img860/1149/gettinghigh2011s5.jpg&lt;/a&gt;","torrent":{"xt":"urn:btih:590a3d58fd6220f067d7aa2f3dee9cd1f6587886","amp;dn":"Getting+High+%2A2011%2A+%5BDVDRip.XviD-miguel%5D+%5BENG%5D","amp;tr":["udp%3A%2F%2Ftracker.openbittorrent.com%3A80","udp%3A%2F%2Fopen.demonii.com%3A1337","udp%3A%2F%2Ftracker.coppersurfer.tk%3A6969","udp%3A%2F%2Fexodus.desync.com%3A6969"],"infoHash":"590a3d58fd6220f067d7aa2f3dee9cd1f6587886","infoHashBuffer":{"type":"Buffer","data":[89,10,61,88,253,98,32,240,103,215,170,47,61,238,156,209,246,88,120,134]},"announce":[],"urlList":[]}}